# AST/ASF file generated using VICON BodyLanguage
# -----------------------------------------------
:version 1.10
:name VICON
:units
  mass 1.0
  length 0.45
  angle deg
:documentation
   .ast/.asf automatically generated from VICON data using
   VICON BodyBuilder and BodyLanguage model FoxedUp or BRILLIANT.MOD
:root
   order TX TY TZ RX RY RZ
   axis XYZ
   position 0 0 0  
   orientation 0 0 0 
:bonedata
  begin
     id 1 
     name lhipjoint
     direction 0.577973 -0.728611 0.367523 
     length 2.48544 
     axis 0 0 0  XYZ
  end
  begin
     id 2 
     name lfemur
     direction 0.34202 -0.939693 0  
     length 7.1921  
     axis 0 0 20  XYZ
    dof rx ry rz
    limits (-160.0 20.0)
           (-70.0 70.0)
           (-60.0 70.0)
  end
  begin
     id 3 
     name ltibia
     direction 0.34202 -0.939693 0   
     length 7.71059   
     axis 0 0 20   XYZ
    dof rx
    limits (-10.0 170.0)
  end
  begin
     id 4 
     name lfoot
     direction 0.089538 -0.246004 0.965124   
     length 2.19909   
     axis -90 7.62852e-016 20   XYZ
    dof rx rz
    limits (-45.0 90.0)
           (-70.0 20.0)
  end
  begin
     id 5 
     name ltoes
     direction 1.53544e-011 -4.21829e-011 1   
     length 1.10116   
     axis -90 7.62852e-016 20   XYZ
    dof rx
    limits (-90.0 20.0)
  end
  begin
     id 6 
     name rhipjoint
     direction -0.554414 -0.743062 0.374812   
     length 2.4371  
     axis 0 0 0  XYZ 
  end
  begin
     id 7 
     name rfemur
     direction -0.34202 -0.939693 0   
     length 7.47254   
     axis 0 0 -20   XYZ
    dof rx ry rz
    limits (-160.0 20.0)
           (-70.0 70.0)
           (-70.0 60.0)
  end
  begin
     id 8 
     name rtibia
     direction -0.34202 -0.939693 0   
     length 7.65855   
     axis 0 0 -20   XYZ
    dof rx
    limits (-10.0 170.0)
 end
 begin
     id 9 
     name rfoot
     direction -0.133779 -0.367555 0.92033   
     length 2.43006  
     axis -90 -7.62852e-016 -20   XYZ
    dof rx rz
    limits (-45.0 90.0)
           (-20.0 70.0)
  end
  begin
     id 10 
     name rtoes
     direction -1.53563e-011 -4.21889e-011 1   
     length 1.19625   
     axis -90 -7.62852e-016 -20   XYZ
    dof rx
    limits (-90.0 20.0)
  end
  begin
     id 11 
     name lowerback
     direction 0.0249066 0.998043 -0.0573585   
     length 2.08485   
     axis 0 0 0   XYZ
    dof rx ry rz
    limits (-20.0 45.0)
           (-30.0 30.0)
           (-30.0 30.0)
  end
  begin
     id 12 
     name upperback
     direction 0.0237884 0.999673 0.00943178   
     length 2.08515   
     axis 0 0 0   XYZ
    dof rx ry rz
    limits (-20.0 45.0)
           (-30.0 30.0)
           (-30.0 30.0)
  end
  begin
     id 13 
     name thorax
     direction 0.0106671 0.999301 0.0358174   
     length 2.09037   
     axis 0 0 0   XYZ
    dof rx ry rz
    limits (-20.0 45.0)
           (-30.0 30.0)
           (-30.0 30.0)
  end
  begin
     id 14 
     name lowerneck
     direction -0.0580016 0.987052 0.149546   
     length 1.84454   
     axis 0 0 0   XYZ
    dof rx ry rz
    limits (-20.0 45.0)
           (-30.0 30.0)
           (-30.0 30.0)
  end
  begin
     id 15 
     name upperneck
     direction 0.079456 0.981963 -0.171567   
     length 1.88141   
     axis 0 0 0   XYZ
    dof rx ry rz
    limits (-20.0 45.0)
           (-30.0 30.0)
           (-30.0 30.0)
  end
  begin
     id 16
     name head
     direction 0.0262167 0.9967 -0.0768276  
     length 1.89541  
     axis 0 0 0   XYZ
    dof rx ry rz
    limits (-20.0 45.0)
           (-30.0 30.0)
           (-30.0 30.0)
  end
  begin
     id 17 
     name lclavicle
     direction 0.946135 0.322134 -0.0325326  
     length 3.949  
     axis 0 0 0   XYZ
    dof ry rz
    limits (-20.0 10.0)
           (0.0 20.0)
  end
  begin
     id 18 
     name lhumerus
     direction 1 -4.48964e-011 1.94005e-028   
     length 5.10995   
     axis 180 -30 -90   XYZ
    dof rx ry rz
    limits (-60.0 90.0)
           (-90.0 90.0)
           (-90.0 90.0)
  end
  begin
     id 19
     name lradius
     direction 1 -4.48976e-011 2.87852e-027   
     length 3.21207   
     axis 180 -30 -90   XYZ
    dof rx
    limits (-10.0 170.0)
  end
  begin
     id 20
     name lwrist
     direction 1 -4.48963e-011 1.9975e-027   
     length 1.60604   
     axis 2.96054e-016 90 90   XYZ
    dof ry
    limits (-180.0 0.0)
 end
  begin
     id 21 
     name lhand
     direction 1 -4.48919e-011 4.00227e-027   
     length 0.63349   
     axis -2.5488e-015 90 90   XYZ
    dof rx rz
    limits (-90.0 90.0)
           (-45.0 45.0)
  end
  begin
     id 22 
     name lfingers
     direction 1 -4.49037e-011 7.9652e-027   
     length 0.510736   
     axis -5.0975e-015 90 90   XYZ
    dof rx
    limits (0.0 90.0)
  end
  begin
     id 23
     name lthumb
     direction 0.707107 -6.34922e-011 0.707107   
     length 0.733318   
     axis -90 45 -4.48553e-014   XYZ
    dof rx rz
    limits (-45.0 45.0)
           (-45.0 45.0)
  end
  begin
     id 24 
     name rclavicle
     direction -0.940085 0.328911 -0.0897654   
     length 3.93848  
     axis 0 0 0   XYZ 
    dof ry rz
    limits (-10.0 20.0)
           (-20.0 0.0)
  end
  begin
     id 25 
     name rhumerus
     direction -1 -4.48958e-011 3.02044e-027  
     length 5.25109   
     axis 180 30 90   XYZ
    dof rx ry rz
    limits (-90.0 60.0)
           (-90.0 90.0)
           (-90.0 90.0)
  end
  begin
     id 26 
     name rradius
     direction -1 -4.4897e-011 9.78352e-028   
     length 3.28364   
     axis 180 30 90   XYZ
    dof rx
    limits (-10.0 170.0)
  end
  begin
     id 27 
     name rwrist
     direction -1 -4.48943e-011 1.99918e-027   
     length 1.64182   
     axis 2.96054e-016 -90 -90   XYZ
    dof ry
    limits (-180.0 0.0)
  end
  begin
     id 28
     name rhand
     direction -1 -4.49024e-011 3.98478e-027   
     length 0.599745   
     axis -2.5488e-015 -90 -90   XYZ
    dof rx rz
    limits (-90.0 90.0)
           (-45.0 45.0)
  end
  begin
     id 29
     name rfingers
     direction -1 -4.48914e-011 8.00621e-027   
     length 0.48353   
     axis -5.0975e-015 -90 -90   XYZ
    dof rx
    limits (0.0 90.0)
  end
  begin
     id 30
     name rthumb
     direction -0.707107 -6.34992e-011 0.707107   
     length 0.694255   
     axis -90 -45 4.48553e-014   XYZ
    dof rx rz
    limits (-45.0 45.0)
           (-45.0 45.0)
  end
:hierarchy
  begin
    root lhipjoint rhipjoint lowerback
    lhipjoint lfemur
    lfemur ltibia
    ltibia lfoot
    lfoot ltoes
    rhipjoint rfemur
    rfemur rtibia
    rtibia rfoot
    rfoot rtoes
    lowerback upperback
    upperback thorax
    thorax lowerneck lclavicle rclavicle
    lowerneck upperneck
    upperneck head
    lclavicle lhumerus
    lhumerus lradius
    lradius lwrist
    lwrist lhand lthumb
    lhand lfingers
    rclavicle rhumerus
    rhumerus rradius
    rradius rwrist
    rwrist rhand rthumb
    rhand rfingers
  end

#!OML:ASF E:\CV Data\Top Level 1\Subject 1\Session 1\player.ASF
:FULLY-SPECIFIED
:DEGREES
165
root 9.57502 17.2119 -9.9375 33.8744 -82.7036 -26.7535
lowerback 8.72957 1.14743 3.8345
upperback 0.969272 1.91987 1.91078
thorax -3.8275 0.883123 -0.397839
lowerneck -15.5386 10.5021 -2.3652
upperneck 21.121 14.598 1.8678
head 8.83205 6.79997 2.71504
rclavicle -1.76918e-014 -2.8625e-014
rhumerus -35.3137 40.3017 -102.268
rradius 97.9881
rwrist -8.1245
rhand -38.9344 28.2298
rfingers 7.12502
rthumb -11.9404 -1.40965
lclavicle -1.76918e-014 -2.8625e-014
lhumerus -38.1794 -38.3121 111.598
lradius 92.8809
lwrist -1.87696
lhand -36.6996 12.1109
lfingers 7.12502
lthumb -9.78478 41.8636
rfemur -34.0671 -0.341703 29.9804
rtibia 37.4009
rfoot -9.89301 -4.40276
rtoes 17.1262
lfemur -14.0562 10.2142 -15.5902
ltibia 54.1424
lfoot -15.5599 -1.8644
ltoes -11.1681
166
root 9.63173 17.2115 -9.93742 31.7772 -82.486 -24.6627
lowerback 8.57424 1.09787 3.74001
upperback 0.916447 1.84092 1.90544
thorax -3.80121 0.846497 -0.338563
lowerneck -15.5463 10.4788 -2.36558
upperneck 21.2543 14.5693 1.87166
head 8.87966 6.78093 2.72024
rclavicle 4.67144e-015 -5.1684e-015
rhumerus -35.2599 40.3014 -102.21
rradius 98.3214
rwrist -8.06491
rhand -39.0012 28.3799
rfingers 7.12502
rthumb -12.0048 -1.25581
lclavicle 4.67144e-015 -5.1684e-015
lhumerus -38.1595 -38.3056 111.673
lradius 93.1326
lwrist -2.24471
lhand -36.8129 12.0839
lfingers 7.12502
lthumb -9.89417 41.8314
rfemur -34.2614 -0.482702 29.7625
rtibia 37.371
rfoot -9.70119 -4.54977
rtoes 17.1043
lfemur -13.0427 9.98924 -15.8342
ltibia 53.6276
lfoot -15.231 -1.92136
ltoes -10.6348
167
root 9.69058 17.2101 -9.93688 29.7889 -82.2451 -22.6754
lowerback 8.41993 1.04382 3.65231
upperback 0.86515 1.75681 1.90281
thorax -3.77362 0.807183 -0.279941
lowerneck -15.5566 10.4563 -2.37373
upperneck 21.3774 14.5439 1.87384
head 8.92376 6.7631 2.72603
rclavicle -1.82882e-014 -4.37326e-015
rhumerus -35.1988 40.309 -102.145
rradius 98.6589
rwrist -7.98107
rhand -39.0599 28.5231
rfingers 7.12502
rthumb -12.0614 -1.1093
lclavicle -1.82882e-014 -4.37326e-015
lhumerus -38.1356 -38.3022 111.724
lradius 93.419
lwrist -2.58616
lhand -36.9887 12.0596
lfingers 7.12502
lthumb -10.0637 41.799
rfemur -34.4759 -0.628524 29.5444
rtibia 37.3536
rfoot -9.50704 -4.70641
rtoes 17.0727
lfemur -12.0373 9.76275 -16.0786
ltibia 53.0423
lfoot -14.8473 -1.91498
ltoes -10.0409
168
root 9.75157 17.2077 -9.93622 27.8979 -81.9824 -20.7826
lowerback 8.2701 0.982088 3.56121
upperback 0.815955 1.66267 1.90846
thorax -3.74666 0.762901 -0.210054
lowerneck -15.5263 10.4363 -2.45802
upperneck 21.4429 14.5299 1.90946
head 8.93156 6.75167 2.7489
rclavicle 1.09332e-014 7.55382e-015
rhumerus -35.1374 40.3409 -102.071
rradius 99.0003
rwrist -7.8773
rhand -39.1189 28.6787
rfingers 7.12502
rthumb -12.1183 -0.950355
lclavicle 1.09332e-014 7.55382e-015
lhumerus -38.0893 -38.2828 111.743
lradius 93.7327
lwrist -2.92004
lhand -37.1217 12.0055
lfingers 7.12502
lthumb -10.192 41.7386
rfemur -34.7078 -0.780281 29.3247
rtibia 37.3483
rfoot -9.30941 -4.87249
rtoes 17.0277
lfemur -11.0404 9.53992 -16.3242
ltibia 52.3887
lfoot -14.4127 -1.85299
ltoes -9.40177
169
root 9.81491 17.2041 -9.9355 26.1361 -81.6964 -19.0125
lowerback 8.12027 0.918423 3.47426
upperback 0.768487 1.56645 1.91661
thorax -3.71755 0.717517 -0.139941
lowerneck -15.4899 10.4142 -2.54836
upperneck 21.4885 14.5136 1.945
head 8.93098 6.73967 2.771
rclavicle 1.2424e-014 -2.10712e-014
rhumerus -35.0699 40.3788 -101.985
rradius 99.3457
rwrist -7.74528
rhand -39.1769 28.8469
rfingers 7.12502
rthumb -12.1742 -0.778807
lclavicle 1.2424e-014 -2.10712e-014
lhumerus -38.049 -38.3036 111.732
lradius 94.0857
lwrist -3.23841
lhand -37.2792 11.9032
lfingers 7.12502
lthumb -10.3439 41.6288
rfemur -34.9602 -0.923019 29.104
rtibia 37.3536
rfoot -9.10627 -5.05903
rtoes 16.9793
lfemur -10.0619 9.32133 -16.5668
ltibia 51.6704
lfoot -13.9307 -1.72304
ltoes -8.84727
170
root 9.88071 17.1996 -9.93459 24.5071 -81.3843 -17.3695
lowerback 7.97428 0.851829 3.39726
upperback 0.721018 1.46755 1.9258
thorax -3.69004 0.670561 -0.0744065
lowerneck -15.4567 10.3891 -2.6262
upperneck 21.5294 14.492 1.97222
head 8.93123 6.72527 2.78811
rclavicle 1.88845e-014 2.38542e-015
rhumerus -34.9997 40.4218 -101.89
rradius 99.6928
rwrist -7.57306
rhand -39.2329 29.0337
rfingers 7.12502
rthumb -12.2283 -0.588861
lclavicle 1.88845e-014 2.38542e-015
lhumerus -38.0148 -38.3313 111.729
lradius 94.446
lwrist -3.59904
lhand -37.517 11.8038
lfingers 7.12502
lthumb -10.5734 41.5178
rfemur -35.2333 -1.0695 28.8867
rtibia 37.3696
rfoot -8.89796 -5.25703
rtoes 16.9205
lfemur -9.1042 9.09593 -16.8074
ltibia 50.8867
lfoot -13.4076 -1.53261
ltoes -8.45637
171
root 9.949 17.1942 -9.93379 22.9734 -81.0522 -15.8141
lowerback 7.83254 0.78557 3.31905
upperback 0.672169 1.36936 1.93383
thorax -3.66598 0.623893 -0.00983632
lowerneck -15.4401 10.3584 -2.67081
upperneck 21.5833 14.4594 1.9831
head 8.94333 6.70562 2.79594
rclavicle -3.1408e-014 2.38542e-015
rhumerus -34.9285 40.4615 -101.79
rradius 100.037
rwrist -7.33834
rhand -39.2925 29.2446
rfingers 7.12502
rthumb -12.2857 -0.374473
lclavicle -3.1408e-014 2.38542e-015
lhumerus -37.9885 -38.3711 111.737
lradius 94.8093
lwrist -4.00706
lhand -37.7203 11.6652
lfingers 7.12502
lthumb -10.7695 41.3691
rfemur -35.5285 -1.21102 28.6625
rtibia 37.3971
rfoot -8.6856 -5.47227
rtoes 16.8751
lfemur -8.16948 8.8607 -17.0523
ltibia 50.0349
lfoot -12.8306 -1.31107
ltoes -8.12258
172
root 10.0198 17.1878 -9.93316 21.5342 -80.7054 -14.3418
lowerback 7.69166 0.722011 3.23843
upperback 0.62092 1.27473 1.9363
thorax -3.64438 0.578958 0.0496196
lowerneck -15.456 10.3227 -2.64918
upperneck 21.6697 14.4133 1.96096
head 8.98103 6.67912 2.78621
rclavicle -7.05686e-015 -4.77083e-015
rhumerus -34.8538 40.4918 -101.683
rradius 100.379
rwrist -7.02264
rhand -39.353 29.4724
rfingers 7.12502
rthumb -12.344 -0.143167
lclavicle -7.05686e-015 -4.77083e-015
lhumerus -37.9717 -38.426 111.749
lradius 95.1749
lwrist -4.465
lhand -37.9304 11.4871
lfingers 7.12502
lthumb -10.9721 41.1803
rfemur -35.8513 -1.3438 28.429
rtibia 37.4384
rfoot -8.46929 -5.70261
rtoes 16.8525
lfemur -7.2617 8.61199 -17.3063
ltibia 49.1094
lfoot -12.1782 -1.07076
ltoes -7.84027
173
root 10.0929 17.1803 -9.93254 20.1801 -80.3448 -12.9458
lowerback 7.55471 0.660905 3.1505
upperback 0.567446 1.18318 1.93867
thorax -3.62704 0.53559 0.112423
lowerneck -15.4978 10.2805 -2.59046
upperneck 21.7846 14.3558 1.91864
head 9.03825 6.64621 2.76659
rclavicle 8.64713e-015 -1.70955e-014
rhumerus -34.7812 40.5174 -101.569
rradius 100.715
rwrist -6.6127
rhand -39.4191 29.7131
rfingers 7.12502
rthumb -12.4078 0.101305
lclavicle 8.64713e-015 -1.70955e-014
lhumerus -37.9623 -38.4958 111.766
lradius 95.5437
lwrist -4.96913
lhand -38.0672 11.2403
lfingers 7.12502
lthumb -11.1041 40.9265
rfemur -36.1994 -1.47219 28.1845
rtibia 37.496
rfoot -8.25165 -5.94503
rtoes 16.8549
lfemur -6.37799 8.35243 -17.5697
ltibia 48.1018
lfoot -11.4209 -0.838223
ltoes -7.72661
174
root 10.1685 17.1715 -9.93211 18.9019 -79.9699 -11.6133
lowerback 7.4206 0.598736 3.05134
upperback 0.510765 1.08977 1.94183
thorax -3.61453 0.49141 0.182221
lowerneck -15.5545 10.2357 -2.51245
upperneck 21.9128 14.2934 1.86565
head 9.10537 6.61052 2.74175
rclavicle 1.78906e-015 1.27222e-014
rhumerus -34.7086 40.5465 -101.449
rradius 101.043
rwrist -6.11615
rhand -39.4936 29.9694
rfingers 7.12502
rthumb -12.4795 0.361988
lclavicle 1.78906e-015 1.27222e-014
lhumerus -37.9448 -38.5502 111.785
lradius 95.9039
lwrist -5.5356
lhand -38.2194 11.0096
lfingers 7.12502
lthumb -11.2509 40.6879
rfemur -36.5793 -1.59693 27.9286
rtibia 37.5728
rfoot -8.03219 -6.19996
rtoes 16.875
lfemur -5.52278 8.08839 -17.8411
ltibia 47.0045
lfoot -10.5286 -0.618915
ltoes -7.77357
175
root 10.2465 17.1612 -9.93179 17.7268 -79.5819 -10.3742
lowerback 7.29494 0.535624 2.93885
upperback 0.449153 0.994949 1.9517
thorax -3.61186 0.44664 0.266239
lowerneck -15.6222 10.1889 -2.42424
upperneck 22.0549 14.2279 1.80593
head 9.18087 6.5727 2.71417
rclavicle 3.10104e-014 9.54166e-015
rhumerus -34.6412 40.587 -101.324
rradius 101.363
rwrist -5.5621
rhand -39.5746 30.2581
rfingers 7.12502
rthumb -12.5577 0.655511
lclavicle 3.10104e-014 9.54166e-015
lhumerus -37.9255 -38.6058 111.797
lradius 96.2656
lwrist -6.1416
lhand -38.4926 10.8225
lfingers 7.12502
lthumb -11.5144 40.4862
rfemur -36.9885 -1.71452 27.6661
rtibia 37.6705
rfoot -7.8126 -6.46935
rtoes 16.902
lfemur -4.69215 7.80855 -18.1149
ltibia 45.8083
lfoot -9.50186 -0.414276
ltoes -7.95543
176
root 10.3269 17.1491 -9.93157 16.6635 -79.1828 -9.23634
lowerback 7.17798 0.467742 2.81667
upperback 0.382727 0.89395 1.96976
thorax -3.61898 0.398883 0.364484
lowerneck -15.6564 10.1417 -2.40078
upperneck 22.1558 14.1668 1.78298
head 9.22768 6.53847 2.70378
rclavicle -4.27387e-015 5.56597e-015
rhumerus -34.5798 40.6521 -101.197
rradius 101.679
rwrist -4.98765
rhand -39.6586 30.5881
rfingers 7.12502
rthumb -12.6386 0.990457
lclavicle -4.27387e-015 5.56597e-015
lhumerus -37.8853 -38.6291 111.795
lradius 96.6199
lwrist -6.7973
lhand -38.8037 10.7009
lfingers 7.12502
lthumb -11.8144 40.3476
rfemur -37.4316 -1.82404 27.4001
rtibia 37.7953
rfoot -7.59385 -6.75376
rtoes 16.929
lfemur -3.88515 7.51657 -18.3847
ltibia 44.5086
lfoot -8.4358 -0.222309
ltoes -8.5056
177
root 10.4094 17.1351 -9.93146 15.6838 -78.7802 -8.17315
lowerback 7.06714 0.399338 2.67661
upperback 0.314311 0.791512 1.99477
thorax -3.6314 0.350726 0.479854
lowerneck -15.6777 10.093 -2.40884
upperneck 22.2338 14.1055 1.78005
head 9.25999 6.50521 2.70229
rclavicle -4.81059e-014 -9.54166e-015
rhumerus -34.5205 40.743 -101.062
rradius 101.997
rwrist -4.43352
rhand -39.7273 30.9379
rfingers 7.12502
rthumb -12.7049 1.34441
lclavicle -4.81059e-014 -9.54166e-015
lhumerus -37.8363 -38.6458 111.782
lradius 96.9693
lwrist -7.48244
lhand -39.12 10.574
lfingers 7.12502
lthumb -12.1194 40.203
rfemur -37.9094 -1.9253 27.126
rtibia 37.9564
rfoot -7.383 -7.04881
rtoes 16.9582
lfemur -3.09307 7.18189 -18.656
ltibia 43.1026
lfoot -7.48565 0.00580222
ltoes -9.38629
178
root 10.4947 17.1179 -9.93137 14.8047 -78.371 -7.19979
lowerback 6.96223 0.33027 2.53116
upperback 0.2439 0.688336 2.02368
thorax -3.64871 0.302321 0.602159
lowerneck -15.6986 10.0403 -2.42598
upperneck 22.2989 14.0386 1.78563
head 9.28651 6.47028 2.70355
rclavicle 2.77305e-014 -2.14687e-014
rhumerus -34.4583 40.8548 -100.919
rradius 102.322
rwrist -3.91652
rhand -39.7609 31.2878
rfingers 7.12502
rthumb -12.7372 1.69632
lclavicle 2.77305e-014 -2.14687e-014
lhumerus -37.7839 -38.655 111.761
lradius 97.3161
lwrist -8.20915
lhand -39.4746 10.4972
lfingers 7.12502
lthumb -12.4613 40.1057
rfemur -38.4327 -2.02522 26.852
rtibia 38.1625
rfoot -7.17855 -7.35043
rtoes 16.9755
lfemur -2.31239 6.80471 -18.9234
ltibia 41.6049
lfoot -6.94206 0.279404
ltoes -10.9497
179
root 10.5828 17.0962 -9.93136 14.0321 -77.9623 -6.32866
lowerback 6.86776 0.264297 2.3842
upperback 0.17543 0.589724 2.0577
thorax -3.66925 0.256258 0.729966
lowerneck -15.7194 9.98175 -2.45693
upperneck 22.3449 13.9639 1.80196
head 9.30459 6.43281 2.70846
rclavicle 4.96962e-015 -1.19271e-014
rhumerus -34.3888 40.9861 -100.764
rradius 102.652
rwrist -3.42419
rhand -39.7713 31.6077
rfingers 7.12502
rthumb -12.7473 2.01682
lclavicle 4.96962e-015 -1.19271e-014
lhumerus -37.7183 -38.6418 111.742
lradius 97.653
lwrist -8.96689
lhand -39.7163 10.3428
lfingers 7.12502
lthumb -12.6943 39.937
rfemur -39.002 -2.11903 26.5814
rtibia 38.42
rfoot -6.98333 -7.65932
rtoes 16.9991
lfemur -1.53055 6.40071 -19.1912
ltibia 40.0418
lfoot -6.96484 0.646032
ltoes -13.2939
